<svg width="182" height="37" viewBox="0 0 182 37" fill="none" xmlns="http://www.w3.org/2000/svg">
<g clip-path="url(#clip0_26_42)">
<mask id="mask0_26_42" style="mask-type:luminance" maskUnits="userSpaceOnUse" x="0" y="0" width="182" height="37">
<path d="M171.454 0.960938H10.946C5.42317 0.960938 0.946014 5.43809 0.946014 10.9609V26.9609C0.946014 32.4838 5.42317 36.9609 10.946 36.9609H171.454C176.977 36.9609 181.454 32.4838 181.454 26.9609V10.9609C181.454 5.43809 176.977 0.960938 171.454 0.960938Z" fill="white"/>
</mask>
<g mask="url(#mask0_26_42)">
<path d="M44.561 20.3498C44.561 24.8298 47.273 27.7968 51.425 27.7968C54.995 27.7968 57.652 25.5428 58.067 22.2608H54.663C54.303 23.8018 53.113 24.6578 51.425 24.6578C49.266 24.6578 47.938 23.0028 47.938 20.3498C47.938 17.6958 49.377 16.0118 51.535 16.0118C53.141 16.0118 54.275 16.8398 54.663 18.4378H58.039C57.679 15.0418 55.133 12.9018 51.397 12.9018C47.357 12.9018 44.561 15.9838 44.561 20.3498ZM59.778 20.3498C59.778 24.7448 62.85 27.7698 67.084 27.7698C71.319 27.7698 74.391 24.7448 74.391 20.3498C74.391 15.9558 71.319 12.9318 67.084 12.9318C62.85 12.9318 59.778 15.9558 59.778 20.3498ZM63.154 20.3498C63.154 17.7818 64.759 16.0418 67.084 16.0418C69.409 16.0418 71.014 17.7818 71.014 20.3498C71.014 22.9178 69.409 24.6588 67.084 24.6588C64.759 24.6588 63.154 22.9188 63.154 20.3498ZM82.685 27.7968C84.761 27.7968 86.532 26.8558 87.362 25.2288L87.584 27.4258H90.684V6.19678H87.334V15.1278C86.477 13.7298 84.788 12.9028 82.879 12.9028C78.755 12.9028 76.264 16.0408 76.264 20.4358C76.264 24.8008 78.727 27.7968 82.685 27.7968ZM83.432 24.6008C81.08 24.6008 79.641 22.8318 79.641 20.3208C79.641 17.8108 81.08 16.0128 83.432 16.0128C85.785 16.0128 87.307 17.7818 87.307 20.3208C87.307 22.8608 85.785 24.6008 83.432 24.6008ZM100.318 27.7968C103.888 27.7968 106.379 25.9418 106.96 22.8608H103.833C103.445 24.2008 102.228 24.9438 100.373 24.9438C98.132 24.9438 96.859 23.6878 96.609 21.2058L106.905 21.1768V20.1208C106.905 15.7268 104.303 12.9018 100.207 12.9018C96.194 12.9018 93.399 15.9548 93.399 20.3778C93.399 24.7438 96.249 27.7968 100.318 27.7968ZM100.235 15.7558C102.255 15.7558 103.556 17.0398 103.556 18.9798H96.692C97.025 16.8688 98.242 15.7558 100.235 15.7558ZM124.719 23.4598V20.2648H122.256V6.56778H117.8L108.639 20.2648V23.4598H118.907V27.4258H122.256V23.4598H124.719ZM112.403 20.2648L118.907 10.5058V20.2648H112.403ZM136.08 13.2738C135.593 13.1426 135.091 13.0754 134.586 13.0738C132.759 13.0738 131.458 14.0158 130.877 15.4138L130.683 13.3598H127.5V27.4268H130.877V20.5788C130.877 17.8388 132.399 16.4988 134.835 16.4988H136.08V13.2738ZM144.021 27.7968C147.591 27.7968 150.082 25.9418 150.663 22.8608H147.536C147.148 24.2008 145.931 24.9438 144.076 24.9438C141.835 24.9438 140.561 23.6878 140.313 21.2058L150.608 21.1768V20.1208C150.608 15.7268 148.006 12.9018 143.91 12.9018C139.897 12.9018 137.102 15.9548 137.102 20.3778C137.102 24.7438 139.953 27.7968 144.021 27.7968ZM143.938 15.7558C145.958 15.7558 147.259 17.0398 147.259 18.9798H140.395C140.728 16.8688 141.945 15.7558 143.938 15.7558ZM156.688 27.4258V19.8358C156.688 17.5528 157.961 16.0698 160.036 16.0698C161.78 16.0698 162.915 17.2098 162.915 19.5798V27.4258H166.291V18.7518C166.291 15.0988 164.521 12.9018 161.089 12.9018C159.234 12.9018 157.573 13.7298 156.715 15.1568L156.439 13.3298H153.311V27.4258H156.688ZM173.677 27.7968C175.809 27.7968 177.663 26.7978 178.244 25.3428L178.494 27.4258H181.455V18.8658C181.455 14.9558 179.185 12.9018 175.505 12.9018C171.796 12.9018 169.36 14.8998 169.36 17.9518H172.238C172.238 16.4688 173.346 15.6128 175.337 15.6128C177.053 15.6128 178.161 16.3828 178.161 18.2948V18.6088L174.066 18.9228C170.826 19.1798 169 20.8058 169 23.4028C169 26.0558 170.772 27.7968 173.677 27.7968ZM174.785 25.1718C173.262 25.1718 172.432 24.5438 172.432 23.2598C172.432 22.1188 173.235 21.4048 175.337 21.2058L178.188 20.9768V21.7188C178.188 23.8878 176.861 25.1718 174.785 25.1718Z" fill="white"/>
<path d="M36.585 22.4062L34.565 12.6132C34.5475 12.5261 34.5224 12.4408 34.49 12.3582C34.203 11.3392 33.819 11.1182 33.301 10.6902C32.823 10.3202 32.617 10.1802 32.617 10.1802C32.617 10.1802 31.307 13.2622 30.949 13.5542C27.446 16.4242 21.576 20.8942 20.142 21.7012L20.115 21.7162C19.645 22.0083 19.111 22.1816 18.559 22.2212V36.9612C19.7864 36.928 20.984 36.5757 22.034 35.9392C23.619 35.0422 27.834 31.5952 32.774 27.5102L34.71 25.9102C35.997 24.8542 36.615 23.8052 36.6 22.6982C36.6042 22.6006 36.5992 22.5028 36.585 22.4062Z" fill="#4D26BC"/>
<path d="M17.294 21.8982L6.135 13.4622C6.04161 13.3829 5.95862 13.2922 5.888 13.1922C5.87843 12.9161 5.79709 12.6472 5.652 12.4122C5.50884 12.1795 5.30621 11.9893 5.065 11.8612L5.136 10.1812C5.136 10.1812 4.903 10.3382 4.372 10.6682C3.703 11.0802 3.202 11.3812 2.857 13.0022L2.598 14.3292L0.976002 22.6652C0.953301 22.7824 0.943244 22.9018 0.946002 23.0212C0.985002 24.5282 2.244 25.5842 2.532 25.8052L15.258 35.8572C16.2024 36.5868 17.3657 36.9759 18.559 36.9612V22.2922C18.1033 22.3202 17.6532 22.18 17.294 21.8982Z" fill="#2C0E83"/>
<path d="M33.784 10.805C33.7621 10.7887 33.7411 10.7714 33.721 10.753C33.321 10.408 25.432 4.87596 20.766 1.60996C20.1514 1.17553 19.4145 0.948207 18.662 0.960958C17.9095 0.975115 17.181 1.22833 16.582 1.68396L16.011 2.12496C15.021 2.88496 13.181 4.29096 10.964 5.90396C8.41999 7.75396 6.07999 9.36396 3.99999 10.64C3.11599 11.182 2.29899 12.646 4.52999 14.431C4.76599 14.612 16.506 23.504 16.506 23.504C17.853 24.516 19.448 24.426 21.031 23.489C22.571 22.621 28.025 18.452 31.464 15.67L32.338 14.96C32.419 14.894 32.493 14.829 32.564 14.764C34.034 13.524 35.266 11.85 33.784 10.804V10.805Z" fill="#7547F5"/>
</g>
</g>
<defs>
<clipPath id="clip0_26_42">
<rect width="182" height="37" fill="white"/>
</clipPath>
</defs>
</svg>
