<svg width="216" height="57" viewBox="0 0 216 57" fill="none" xmlns="http://www.w3.org/2000/svg">
<g id="supporter4">
<g id="Clip path group">
<mask id="mask0_10_31" style="mask-type:luminance" maskUnits="userSpaceOnUse" x="28" y="6" width="160" height="46">
<g id="a">
<path id="Vector" d="M28.8154 6.10336H187.538V51.7034H28.8154V6.10336Z" fill="white"/>
</g>
</mask>
<g mask="url(#mask0_10_31)">
<g id="Group">
<path id="Vector_2" d="M83.8423 19.2625H87.464C88.376 19.2625 88.9758 19.4703 89.445 19.9141C89.7054 20.1745 89.9132 20.5647 89.9132 21.0339C89.9132 21.8941 89.445 22.3633 88.7934 22.6237C89.6528 22.8842 90.1746 23.4051 90.1746 24.3434C90.1746 25.5939 89.1836 26.3235 87.4649 26.3235H83.8423V19.2625ZM86.9949 22.1029C87.5947 22.1029 87.9068 21.8941 87.9068 21.503C87.9068 21.1128 87.5684 20.9041 86.9949 20.9041H85.7452V22.1546H86.9957V22.102L86.9949 22.1029ZM87.2562 24.8125C87.8551 24.8125 88.1682 24.5521 88.1682 24.161C88.1682 23.7699 87.8288 23.5094 87.1772 23.5094H85.6663V24.8389H87.2562V24.8125ZM94.7863 19.2616H96.7664V24.6565H100.18V26.3752H94.7863V19.2616ZM104.062 22.8325C104.062 20.7997 105.704 19.0792 107.893 19.0792C110.082 19.0792 111.723 20.7217 111.723 22.7798C111.723 24.8125 110.082 26.4805 107.893 26.4805C105.704 26.5068 104.062 24.8643 104.062 22.8325ZM109.743 22.8325C109.743 21.7898 109.014 20.8515 107.893 20.8515C106.851 20.8515 106.121 21.7117 106.121 22.7544C106.121 23.7962 106.851 24.6565 107.971 24.6565C109.014 24.7345 109.743 23.8742 109.743 22.8325ZM116.179 22.8325C116.179 20.7217 117.769 19.0792 119.931 19.0792C121.39 19.0792 122.302 19.679 122.954 20.591L121.443 21.7117C121.052 21.1909 120.583 20.8524 119.853 20.8524C118.863 20.8524 118.134 21.7117 118.134 22.7544C118.134 23.7962 118.863 24.6565 119.853 24.6565C120.583 24.6565 121.052 24.3171 121.443 23.7971L122.954 24.8389C122.302 25.7509 121.365 26.4278 119.801 26.4278C117.847 26.5068 116.179 24.9949 116.179 22.8325ZM127.592 19.2625H129.573V22.1546L132.022 19.2625H134.393L131.683 22.3633L134.445 26.4541H132.074L130.303 23.8225L129.573 24.6038V26.4541H127.592V19.2625ZM137.859 22.8316C137.859 20.7217 139.448 19.0801 141.611 19.0801C143.071 19.0801 143.983 19.679 144.633 20.591L143.122 21.7117C142.731 21.1909 142.262 20.8524 141.532 20.8524C140.542 20.8524 139.813 21.7117 139.813 22.7544C139.813 23.7962 140.542 24.6565 141.532 24.6565C142.262 24.6565 142.731 24.3171 143.122 23.7971L144.633 24.8389C143.983 25.7509 143.044 26.4278 141.481 26.4278C139.501 26.5068 137.859 24.9949 137.859 22.8325V22.8316ZM149.193 19.2625H151.174V21.8941H153.675V19.2625H155.656V26.3761H153.675V23.6664H151.174V26.3761H149.193V19.2625ZM163.108 19.2099H165.01L168.033 26.4024H165.922L165.401 25.151H162.639L162.118 26.4024H160.007L163.108 19.2099ZM164.802 23.5621L164.02 21.5293L163.238 23.5621H164.802ZM172.384 19.2625H174.364V26.3761H172.384V19.2625ZM179.368 19.2625H181.218L184.189 23.0149V19.2616H186.169V26.3761H184.449L181.426 22.4931V26.3761H179.446V19.2625H179.368ZM83.894 36.3301C83.894 34.2973 85.4059 32.6294 87.5157 32.6294C88.8452 32.6294 89.5484 33.0986 90.278 33.7501L89.7572 34.3491C89.1056 33.7501 88.4286 33.359 87.5166 33.359C85.9268 33.359 84.7543 34.6104 84.7543 36.252C84.7543 37.8927 85.9531 39.2221 87.5166 39.2221C88.5067 39.2221 89.1582 38.831 89.8098 38.1795L90.3307 38.7013C89.6011 39.4309 88.7408 39.9517 87.4903 39.9517C85.4322 40.0307 83.894 38.3882 83.894 36.3301ZM98.0695 32.7084H98.7991L102.031 39.8991H101.17L100.31 37.9971H96.4279L95.5676 39.9H94.7083L98.0695 32.7084ZM100.05 37.2684L98.408 33.6467L96.7664 37.2684H100.05ZM107.085 32.7864H109.717C111.307 32.7864 112.348 33.6458 112.348 35.0269C112.348 36.5379 111.098 37.3201 109.509 37.3201H107.815V39.8211H107.033V32.7601H107.085V32.7864ZM109.665 36.6685C110.864 36.6685 111.645 36.017 111.645 35.0787C111.645 34.0886 110.864 33.5677 109.743 33.5677H107.971V36.7203H109.691V36.6685H109.665ZM117.638 32.7864H118.42V39.8991H117.638V32.7864ZM126.081 33.4897H123.71V32.7601H129.312V33.4897H126.94V39.8737H126.159V33.4897H126.081ZM136.217 32.7075H136.947L140.178 39.8991H139.318L138.458 37.9971H134.576L133.716 39.9H132.856L136.217 32.7075ZM138.198 37.2675L136.556 33.6458L134.914 37.2675H138.198ZM145.233 32.7864H146.014V39.1704H150.027V39.8991H145.207V32.7864H145.233ZM56.4279 35.3663C56.6398 35.3713 56.8505 35.3339 57.0477 35.2562C57.2449 35.1786 57.4246 35.0623 57.5762 34.9142C57.7278 34.7661 57.8483 34.5892 57.9305 34.3939C58.0128 34.1986 58.0551 33.9888 58.0551 33.7769C58.0551 33.565 58.0128 33.3552 57.9305 33.1599C57.8483 32.9646 57.7278 32.7877 57.5762 32.6396C57.4246 32.4915 57.2449 32.3752 57.0477 32.2976C56.8505 32.2199 56.6398 32.1825 56.4279 32.1875C56.0129 32.1972 55.6181 32.369 55.328 32.666C55.0378 32.963 54.8754 33.3617 54.8754 33.7769C54.8754 34.1921 55.0378 34.5908 55.328 34.8878C55.6181 35.1848 56.0129 35.3566 56.4279 35.3663Z" fill="white"/>
<path id="Vector_3" opacity="0.9" d="M59.0604 38.3891C59.4474 38.3891 59.8186 38.2353 60.0923 37.9617C60.3659 37.688 60.5196 37.3169 60.5196 36.9299C60.5196 36.5429 60.3659 36.1717 60.0923 35.8981C59.8186 35.6244 59.4474 35.4707 59.0604 35.4707C58.6734 35.4707 58.3023 35.6244 58.0286 35.8981C57.755 36.1717 57.6012 36.5429 57.6012 36.9299C57.6012 37.3169 57.755 37.688 58.0286 37.9617C58.3023 38.2353 58.6734 38.3891 59.0604 38.3891Z" fill="white"/>
<path id="Vector_4" opacity="0.8" d="M61.301 41.282C61.6535 41.282 61.9915 41.142 62.2407 40.8928C62.49 40.6436 62.63 40.3055 62.63 39.9531C62.63 39.6006 62.49 39.2626 62.2407 39.0133C61.9915 38.7641 61.6535 38.6241 61.301 38.6241C60.9486 38.6241 60.6107 38.7641 60.3616 39.0132C60.1124 39.2624 59.9725 39.6003 59.9725 39.9526C59.9725 40.305 60.1124 40.6429 60.3616 40.892C60.6107 41.1412 60.9486 41.282 61.301 41.282Z" fill="white"/>
<path id="Vector_5" opacity="0.7" d="M63.0215 43.9646C63.1609 43.9686 63.2997 43.9446 63.4297 43.8941C63.5597 43.8435 63.6782 43.7674 63.7783 43.6702C63.8783 43.573 63.9578 43.4568 64.0121 43.3283C64.0664 43.1999 64.0944 43.0618 64.0944 42.9223C64.0944 42.7829 64.0664 42.6448 64.0121 42.5163C63.9578 42.3879 63.8783 42.2716 63.7783 42.1744C63.6782 42.0773 63.5597 42.0011 63.4297 41.9506C63.2997 41.9 63.1609 41.8761 63.0215 41.8801C62.7503 41.888 62.4929 42.0012 62.3039 42.1958C62.1148 42.3904 62.0091 42.651 62.0091 42.9223C62.0091 43.1936 62.1148 43.4542 62.3039 43.6488C62.4929 43.8434 62.7503 43.9567 63.0215 43.9646Z" fill="white"/>
<path id="Vector_6" opacity="0.6" d="M64.4027 46.6243C64.6306 46.6243 64.8492 46.5337 65.0103 46.3725C65.1715 46.2114 65.262 45.9928 65.262 45.7649C65.262 45.5369 65.1715 45.3184 65.0103 45.1572C64.8492 44.996 64.6306 44.9055 64.4027 44.9055C64.1747 44.9055 63.9562 44.996 63.795 45.1572C63.6338 45.3184 63.5433 45.5369 63.5433 45.7649C63.5433 45.9928 63.6338 46.2114 63.795 46.3725C63.9562 46.5337 64.1747 46.6243 64.4027 46.6243Z" fill="white"/>
<path id="Vector_7" opacity="0.5" d="M65.3147 49.3594C65.522 49.3594 65.7209 49.277 65.8675 49.1304C66.0141 48.9838 66.0964 48.785 66.0964 48.5776C66.0964 48.3703 66.0141 48.1714 65.8675 48.0248C65.7209 47.8782 65.522 47.7958 65.3147 47.7958C65.1073 47.7958 64.9085 47.8782 64.7619 48.0248C64.6153 48.1714 64.5329 48.3703 64.5329 48.5776C64.5329 48.785 64.6153 48.9838 64.7619 49.1304C64.9085 49.277 65.1073 49.3594 65.3147 49.3594Z" fill="white"/>
<path id="Vector_8" opacity="0.4" d="M65.8619 51.8349C66.0208 51.8349 66.1733 51.7718 66.2857 51.6594C66.3981 51.547 66.4612 51.3945 66.4612 51.2355C66.4612 51.0766 66.3981 50.9241 66.2857 50.8117C66.1733 50.6993 66.0208 50.6362 65.8619 50.6362C65.7029 50.6362 65.5505 50.6993 65.4381 50.8117C65.3256 50.9241 65.2625 51.0766 65.2625 51.2355C65.2625 51.3945 65.3256 51.547 65.4381 51.6594C65.5505 51.7718 65.7029 51.8349 65.8619 51.8349Z" fill="white"/>
<path id="Vector_9" d="M56.819 30.0241C57.0309 30.0291 57.2416 29.9916 57.4388 29.914C57.636 29.8364 57.8157 29.7201 57.9673 29.572C58.1189 29.4239 58.2394 29.247 58.3216 29.0517C58.4039 28.8564 58.4462 28.6466 58.4462 28.4347C58.4462 28.2228 58.4039 28.013 58.3216 27.8177C58.2394 27.6223 58.1189 27.4454 57.9673 27.2974C57.8157 27.1493 57.636 27.033 57.4388 26.9554C57.2416 26.8777 57.0309 26.8403 56.819 26.8453C56.404 26.855 56.0092 27.0267 55.7191 27.3238C55.4289 27.6208 55.2665 28.0195 55.2665 28.4347C55.2665 28.8499 55.4289 29.2486 55.7191 29.5456C56.0092 29.8426 56.404 30.0144 56.819 30.0241Z" fill="white"/>
<path id="Vector_10" opacity="0.9" d="M60.6503 28.3834C61.0373 28.3834 61.4085 28.2296 61.6821 27.956C61.9558 27.6823 62.1095 27.3112 62.1095 26.9242C62.1095 26.5372 61.9558 26.166 61.6821 25.8924C61.4085 25.6187 61.0373 25.465 60.6503 25.465C60.2633 25.465 59.8922 25.6187 59.6185 25.8924C59.3449 26.166 59.1911 26.5372 59.1911 26.9242C59.1911 27.3112 59.3449 27.6823 59.6185 27.956C59.8922 28.2296 60.2633 28.3834 60.6503 28.3834Z" fill="white"/>
<path id="Vector_11" opacity="0.8" d="M64.194 27.0031C64.5464 27.0031 64.8845 26.8631 65.1337 26.6138C65.3829 26.3646 65.523 26.0266 65.523 25.6741C65.523 25.3216 65.3829 24.9836 65.1337 24.7344C64.8845 24.4851 64.5464 24.3451 64.194 24.3451C63.8416 24.3451 63.5037 24.4851 63.2546 24.7342C63.0054 24.9834 62.8654 25.3213 62.8654 25.6737C62.8654 26.026 63.0054 26.3639 63.2546 26.6131C63.5037 26.8622 63.8416 27.0031 64.194 27.0031Z" fill="white"/>
<path id="Vector_12" opacity="0.7" d="M67.5035 25.9859C67.6429 25.9899 67.7817 25.9659 67.9117 25.9154C68.0417 25.8648 68.1602 25.7887 68.2602 25.6915C68.3602 25.5943 68.4398 25.4781 68.4941 25.3496C68.5484 25.2212 68.5764 25.0831 68.5764 24.9436C68.5764 24.8042 68.5484 24.6661 68.4941 24.5376C68.4398 24.4092 68.3602 24.2929 68.2602 24.1957C68.1602 24.0986 68.0417 24.0224 67.9117 23.9719C67.7817 23.9213 67.6429 23.8974 67.5035 23.9014C67.2323 23.9093 66.9749 24.0225 66.7858 24.2171C66.5968 24.4117 66.491 24.6723 66.491 24.9436C66.491 25.2149 66.5968 25.4755 66.7858 25.6701C66.9749 25.8647 67.2323 25.978 67.5035 25.9859Z" fill="white"/>
<path id="Vector_13" opacity="0.6" d="M70.656 25.4124C70.8842 25.4124 71.103 25.3217 71.2643 25.1604C71.4256 24.9991 71.5163 24.7802 71.5163 24.5521C71.5163 24.3239 71.4256 24.1051 71.2643 23.9438C71.103 23.7825 70.8842 23.6918 70.656 23.6918C70.4278 23.6918 70.209 23.7825 70.0477 23.9438C69.8864 24.1051 69.7957 24.3239 69.7957 24.5521C69.7957 24.7802 69.8864 24.9991 70.0477 25.1604C70.209 25.3217 70.4278 25.4124 70.656 25.4124Z" fill="white"/>
<path id="Vector_14" opacity="0.5" d="M73.6261 25.3343C73.7288 25.3343 73.8305 25.3141 73.9253 25.2748C74.0202 25.2355 74.1064 25.1779 74.1789 25.1053C74.2515 25.0327 74.3091 24.9466 74.3484 24.8517C74.3877 24.7569 74.4079 24.6552 74.4079 24.5525C74.4079 24.4499 74.3877 24.3482 74.3484 24.2534C74.3091 24.1585 74.2515 24.0723 74.1789 23.9997C74.1064 23.9271 74.0202 23.8695 73.9253 23.8303C73.8305 23.791 73.7288 23.7708 73.6261 23.7708C73.4188 23.7708 73.22 23.8531 73.0733 23.9997C72.9267 24.1463 72.8444 24.3452 72.8444 24.5525C72.8444 24.7599 72.9267 24.9587 73.0733 25.1053C73.22 25.2519 73.4188 25.3343 73.6261 25.3343Z" fill="white"/>
<path id="Vector_15" opacity="0.4" d="M76.3367 25.4133C76.4957 25.4133 76.6481 25.3501 76.7606 25.2377C76.873 25.1253 76.9361 24.9728 76.9361 24.8139C76.9361 24.6549 76.873 24.5025 76.7606 24.3901C76.6481 24.2777 76.4957 24.2145 76.3367 24.2145C76.1778 24.2145 76.0253 24.2777 75.9129 24.3901C75.8005 24.5025 75.7374 24.6549 75.7374 24.8139C75.7374 24.9728 75.8005 25.1253 75.9129 25.2377C76.0253 25.3501 76.1778 25.4133 76.3367 25.4133Z" fill="white"/>
<path id="Vector_16" d="M51.8171 27.9651C52.0302 27.9722 52.2425 27.9363 52.4415 27.8596C52.6405 27.783 52.822 27.6671 52.9753 27.5188C53.1285 27.3706 53.2504 27.193 53.3336 26.9967C53.4168 26.8004 53.4597 26.5893 53.4597 26.3761C53.4597 26.1629 53.4168 25.9518 53.3336 25.7555C53.2504 25.5592 53.1285 25.3816 52.9753 25.2334C52.822 25.0851 52.6405 24.9692 52.4415 24.8925C52.2425 24.8159 52.0302 24.78 51.8171 24.7871C51.402 24.7969 51.0072 24.9686 50.7171 25.2656C50.427 25.5626 50.2645 25.9613 50.2645 26.3765C50.2645 26.7917 50.427 27.1904 50.7171 27.4874C51.0072 27.7845 51.402 27.9562 51.8171 27.9659V27.9651Z" fill="white"/>
<path id="Vector_17" opacity="0.9" d="M51.5558 23.6945C51.9429 23.6945 52.3141 23.5407 52.5879 23.267C52.8616 22.9932 53.0154 22.622 53.0154 22.2348C53.0154 21.8477 52.8616 21.4765 52.5879 21.2027C52.3141 20.929 51.9429 20.7752 51.5558 20.7752C51.1688 20.7752 50.7976 20.9289 50.5239 21.2026C50.2503 21.4763 50.0966 21.8474 50.0966 22.2344C50.0966 22.6214 50.2503 22.9926 50.5239 23.2662C50.7976 23.5399 51.1688 23.6936 51.5558 23.6936V23.6945Z" fill="white"/>
<path id="Vector_18" opacity="0.8" d="M51.4786 19.8106C51.8309 19.8106 52.1688 19.6706 52.418 19.4215C52.6671 19.1723 52.8071 18.8344 52.8071 18.482C52.8071 18.1297 52.6671 17.7918 52.418 17.5426C52.1688 17.2935 51.8309 17.1535 51.4786 17.1535C51.1262 17.1535 50.7883 17.2935 50.5392 17.5426C50.29 17.7918 50.15 18.1297 50.15 18.482C50.15 18.8344 50.29 19.1723 50.5392 19.4215C50.7883 19.6706 51.1262 19.8106 51.4786 19.8106Z" fill="white"/>
<path id="Vector_19" opacity="0.7" d="M51.8171 16.1634C51.9565 16.1675 52.0953 16.1435 52.2253 16.093C52.3553 16.0424 52.4738 15.9663 52.5738 15.8691C52.6739 15.7719 52.7534 15.6557 52.8077 15.5272C52.862 15.3987 52.89 15.2607 52.89 15.1212C52.89 14.9817 52.862 14.8437 52.8077 14.7152C52.7534 14.5868 52.6739 14.4705 52.5738 14.3733C52.4738 14.2761 52.3553 14.2 52.2253 14.1495C52.0953 14.0989 51.9565 14.0749 51.8171 14.079C51.5459 14.0869 51.2885 14.2001 51.0994 14.3947C50.9104 14.5893 50.8046 14.8499 50.8046 15.1212C50.8046 15.3925 50.9104 15.6531 51.0994 15.8477C51.2885 16.0423 51.5459 16.1556 51.8171 16.1634Z" fill="white"/>
<path id="Vector_20" opacity="0.6" d="M52.4169 12.8803C52.6449 12.8803 52.8636 12.7897 53.0249 12.6284C53.1861 12.4672 53.2767 12.2485 53.2767 12.0204C53.2767 11.7924 53.1861 11.5737 53.0249 11.4125C52.8636 11.2512 52.6449 11.1606 52.4169 11.1606C52.189 11.1606 51.9704 11.2512 51.8092 11.4123C51.648 11.5735 51.5575 11.7921 51.5575 12.02C51.5575 12.2479 51.648 12.4665 51.8092 12.6277C51.9704 12.7888 52.189 12.8803 52.4169 12.8803Z" fill="white"/>
<path id="Vector_21" opacity="0.5" d="M53.2754 9.96098C53.4827 9.96098 53.6816 9.87862 53.8282 9.73201C53.9748 9.5854 54.0572 9.38655 54.0572 9.17921C54.0572 8.97187 53.9748 8.77302 53.8282 8.62641C53.6816 8.4798 53.4827 8.39743 53.2754 8.39743C53.0681 8.39743 52.8692 8.4798 52.7226 8.62641C52.576 8.77302 52.4936 8.97187 52.4936 9.17921C52.4936 9.38655 52.576 9.5854 52.7226 9.73201C52.8692 9.87862 53.0681 9.96098 53.2754 9.96098Z" fill="white"/>
<path id="Vector_22" opacity="0.4" d="M54.397 7.27761C54.556 7.27761 54.7084 7.21446 54.8208 7.10206C54.9332 6.98965 54.9964 6.8372 54.9964 6.67823C54.9964 6.51927 54.9332 6.36682 54.8208 6.25441C54.7084 6.14201 54.556 6.07886 54.397 6.07886C54.238 6.07886 54.0856 6.14201 53.9732 6.25441C53.8608 6.36682 53.7976 6.51927 53.7976 6.67823C53.7976 6.8372 53.8608 6.98965 53.9732 7.10206C54.0856 7.21446 54.238 7.27761 54.397 7.27761Z" fill="white"/>
<path id="Vector_23" d="M48.3252 32.1349C48.537 32.1398 48.7478 32.1024 48.945 32.0248C49.1421 31.9471 49.3218 31.8308 49.4734 31.6828C49.625 31.5347 49.7455 31.3578 49.8277 31.1625C49.91 30.9671 49.9524 30.7574 49.9524 30.5454C49.9524 30.3335 49.91 30.1237 49.8277 29.9284C49.7455 29.7331 49.625 29.5562 49.4734 29.4081C49.3218 29.26 49.1421 29.1437 48.945 29.0661C48.7478 28.9885 48.537 28.951 48.3252 28.956C47.9101 28.9658 47.5153 29.1375 47.2252 29.4345C46.9351 29.7315 46.7726 30.1302 46.7726 30.5454C46.7726 30.9606 46.9351 31.3593 47.2252 31.6564C47.5153 31.9534 47.9101 32.1251 48.3252 32.1349Z" fill="white"/>
<path id="Vector_24" opacity="0.9" d="M44.3124 30.9379C44.6995 30.9379 45.0708 30.7841 45.3445 30.5103C45.6182 30.2366 45.772 29.8653 45.772 29.4782C45.772 29.0911 45.6182 28.7198 45.3445 28.4461C45.0708 28.1724 44.6995 28.0186 44.3124 28.0186C43.9254 28.0186 43.5542 28.1723 43.2806 28.446C43.0069 28.7196 42.8532 29.0908 42.8532 29.4778C42.8532 29.8648 43.0069 30.2359 43.2806 30.5096C43.5542 30.7832 43.9254 30.9379 44.3124 30.9379Z" fill="white"/>
<path id="Vector_25" opacity="0.8" d="M40.7424 29.6865C41.0948 29.6865 41.4327 29.5465 41.6818 29.2973C41.931 29.0482 42.071 28.7103 42.071 28.3579C42.071 28.0056 41.931 27.6677 41.6818 27.4185C41.4327 27.1694 41.0948 27.0294 40.7424 27.0294C40.3901 27.0294 40.0521 27.1694 39.803 27.4185C39.5538 27.6677 39.4139 28.0056 39.4139 28.3579C39.4139 28.7103 39.5538 29.0482 39.803 29.2973C40.0521 29.5465 40.3901 29.6865 40.7424 29.6865Z" fill="white"/>
<path id="Vector_26" opacity="0.7" d="M37.6425 28.0186C37.7819 28.0226 37.9207 27.9986 38.0507 27.9481C38.1807 27.8975 38.2992 27.8214 38.3992 27.7242C38.4993 27.6271 38.5788 27.5108 38.6331 27.3823C38.6874 27.2539 38.7154 27.1158 38.7154 26.9763C38.7154 26.8369 38.6874 26.6988 38.6331 26.5704C38.5788 26.4419 38.4993 26.3256 38.3992 26.2285C38.2992 26.1313 38.1807 26.0552 38.0507 26.0046C37.9207 25.954 37.7819 25.9301 37.6425 25.9341C37.3713 25.942 37.1139 26.0552 36.9248 26.2498C36.7358 26.4444 36.6301 26.7051 36.6301 26.9763C36.6301 27.2476 36.7358 27.5083 36.9248 27.7029C37.1139 27.8974 37.3713 28.0107 37.6425 28.0186Z" fill="white"/>
<path id="Vector_27" opacity="0.6" d="M34.8276 26.3253C35.0556 26.3253 35.2743 26.2347 35.4355 26.0734C35.5968 25.9122 35.6874 25.6935 35.6874 25.4654C35.6874 25.2374 35.5968 25.0187 35.4355 24.8575C35.2743 24.6962 35.0556 24.6056 34.8276 24.6056C34.5996 24.6056 34.3811 24.6962 34.2199 24.8573C34.0587 25.0185 33.9682 25.2371 33.9682 25.465C33.9682 25.6929 34.0587 25.9115 34.2199 26.0727C34.3811 26.2338 34.5996 26.3244 34.8276 26.3244V26.3253Z" fill="white"/>
<path id="Vector_28" opacity="0.5" d="M32.4555 24.5276C32.6627 24.5276 32.8614 24.4452 33.008 24.2987C33.1545 24.1522 33.2368 23.9534 33.2368 23.7462C33.2368 23.539 33.1545 23.3403 33.008 23.1937C32.8614 23.0472 32.6627 22.9649 32.4555 22.9649C32.2483 22.9649 32.0495 23.0472 31.903 23.1937C31.7565 23.3403 31.6741 23.539 31.6741 23.7462C31.6741 23.9534 31.7565 24.1522 31.903 24.2987C32.0495 24.4452 32.2483 24.5276 32.4555 24.5276Z" fill="white"/>
<path id="Vector_29" opacity="0.4" d="M30.3974 22.572C30.5563 22.572 30.7088 22.5089 30.8212 22.3965C30.9336 22.2841 30.9967 22.1316 30.9967 21.9726C30.9967 21.8137 30.9336 21.6612 30.8212 21.5488C30.7088 21.4364 30.5563 21.3733 30.3974 21.3733C30.2384 21.3733 30.0859 21.4364 29.9735 21.5488C29.8611 21.6612 29.798 21.8137 29.798 21.9726C29.798 22.1316 29.8611 22.2841 29.9735 22.3965C30.0859 22.5089 30.2384 22.572 30.3974 22.572Z" fill="white"/>
<path id="Vector_30" d="M51.1646 36.6694C51.3765 36.6744 51.5872 36.637 51.7844 36.5593C51.9816 36.4817 52.1613 36.3654 52.3129 36.2173C52.4645 36.0692 52.585 35.8923 52.6672 35.697C52.7495 35.5017 52.7918 35.2919 52.7918 35.08C52.7918 34.8681 52.7495 34.6583 52.6672 34.463C52.585 34.2677 52.4645 34.0908 52.3129 33.9427C52.1613 33.7946 51.9816 33.6783 51.7844 33.6007C51.5872 33.523 51.3765 33.4856 51.1646 33.4906C50.7496 33.5003 50.3548 33.6721 50.0647 33.9691C49.7745 34.2661 49.6121 34.6648 49.6121 35.08C49.6121 35.4952 49.7745 35.8939 50.0647 36.1909C50.3548 36.4879 50.7496 36.6597 51.1646 36.6694Z" fill="white"/>
<path id="Vector_31" opacity="0.9" d="M48.9776 40.0298C49.3646 40.0298 49.7358 39.8761 50.0094 39.6024C50.2831 39.3287 50.4368 38.9576 50.4368 38.5706C50.4368 38.1836 50.2831 37.8124 50.0094 37.5388C49.7358 37.2651 49.3646 37.1114 48.9776 37.1114C48.5906 37.1114 48.2194 37.2651 47.9458 37.5388C47.6721 37.8124 47.5184 38.1836 47.5184 38.5706C47.5184 38.9576 47.6721 39.3287 47.9458 39.6024C48.2194 39.8761 48.5906 40.0298 48.9776 40.0298Z" fill="white"/>
<path id="Vector_32" opacity="0.8" d="M46.8125 43.0017C47.1649 43.0017 47.503 42.8617 47.7522 42.6125C48.0014 42.3632 48.1414 42.0252 48.1414 41.6727C48.1414 41.3203 48.0014 40.9822 47.7522 40.733C47.503 40.4838 47.1649 40.3437 46.8125 40.3438C46.4601 40.3438 46.1222 40.4837 45.8731 40.7329C45.6239 40.982 45.4839 41.3199 45.4839 41.6723C45.4839 42.0246 45.6239 42.3626 45.8731 42.6117C46.1222 42.8609 46.4601 43.0017 46.8125 43.0017Z" fill="white"/>
<path id="Vector_33" opacity="0.7" d="M44.4948 45.2168C44.6342 45.2209 44.773 45.1969 44.903 45.1463C45.0329 45.0958 45.1515 45.0197 45.2515 44.9225C45.3515 44.8253 45.4311 44.709 45.4854 44.5806C45.5397 44.4521 45.5677 44.3141 45.5677 44.1746C45.5677 44.0351 45.5397 43.8971 45.4854 43.7686C45.4311 43.6401 45.3515 43.5239 45.2515 43.4267C45.1515 43.3295 45.0329 43.2534 44.903 43.2028C44.773 43.1523 44.6342 43.1283 44.4948 43.1324C44.2236 43.1402 43.9661 43.2535 43.7771 43.4481C43.5881 43.6427 43.4823 43.9033 43.4823 44.1746C43.4823 44.4459 43.5881 44.7065 43.7771 44.9011C43.9661 45.0957 44.2236 45.2089 44.4948 45.2168Z" fill="white"/>
<path id="Vector_34" opacity="0.6" d="M42.2534 47.2241C42.4814 47.2241 42.7001 47.1335 42.8613 46.9722C43.0226 46.811 43.1132 46.5923 43.1132 46.3642C43.1132 46.1362 43.0226 45.9175 42.8613 45.7563C42.7001 45.595 42.4814 45.5044 42.2534 45.5044C42.0254 45.5044 41.8068 45.595 41.6457 45.7561C41.4845 45.9173 41.394 46.1359 41.394 46.3638C41.394 46.5917 41.4845 46.8103 41.6457 46.9715C41.8068 47.1327 42.0254 47.2241 42.2534 47.2241Z" fill="white"/>
<path id="Vector_35" opacity="0.5" d="M39.8839 48.9165C40.0912 48.9165 40.2901 48.8342 40.4367 48.6875C40.5833 48.5409 40.6657 48.3421 40.6657 48.1347C40.6657 47.9274 40.5833 47.7286 40.4367 47.5819C40.2901 47.4353 40.0912 47.353 39.8839 47.353C39.6766 47.353 39.4777 47.4353 39.3311 47.5819C39.1845 47.7286 39.1021 47.9274 39.1021 48.1347C39.1021 48.3421 39.1845 48.5409 39.3311 48.6875C39.4777 48.8342 39.6766 48.9165 39.8839 48.9165Z" fill="white"/>
<path id="Vector_36" opacity="0.4" d="M37.5127 50.0372C37.6717 50.0372 37.8241 49.9741 37.9365 49.8617C38.0489 49.7493 38.1121 49.5968 38.1121 49.4378C38.1121 49.2789 38.0489 49.1264 37.9365 49.014C37.8241 48.9016 37.6717 48.8385 37.5127 48.8385C37.3539 48.8385 37.2015 48.9016 37.0892 49.0139C36.9769 49.1262 36.9138 49.2786 36.9138 49.4374C36.9138 49.5963 36.9769 49.7486 37.0892 49.8609C37.2015 49.9732 37.3539 50.0363 37.5127 50.0363V50.0372Z" fill="white"/>
</g>
</g>
</g>
</g>
</svg>
