<svg width="171" height="57" viewBox="0 0 171 57" fill="none" xmlns="http://www.w3.org/2000/svg">
<g id="supporter2">
<path id="Vector" d="M37.2454 23.5524H38.8361V24.3039H33.0835V23.5524H34.6751V13.6554C34.6751 13.3415 34.5699 13.2363 34.256 13.2363H33.0844V12.3795H39.2562C40.0077 12.3795 40.7426 12.4847 41.3889 12.6943C42.7709 13.2187 43.6277 14.4946 43.5224 15.9986C43.4172 17.485 42.4561 18.5513 40.9697 18.8661C39.9034 19.0766 38.8361 19.0766 37.8917 19.0766C37.3682 19.0766 37.1402 19.1818 37.1402 19.601V23.0104C37.2454 23.1332 37.2454 23.3428 37.2454 23.5524ZM37.1402 13.131V18.2365C37.8926 18.2365 38.6266 18.3417 39.379 18.2365C40.3401 18.1312 40.6549 17.7121 40.7601 16.751V14.6174C40.6549 13.8659 40.2357 13.4458 39.4833 13.3415C38.7318 13.2363 37.9969 13.2363 37.1402 13.131ZM56.5132 33.9729C56.7236 33.7624 57.0376 33.4485 57.4751 33.1161C57.5804 33.0109 57.79 32.9056 57.8943 33.0109C57.9995 33.0109 58.1048 33.3266 58.1048 33.4318V37.2604C58.1048 37.47 58.1048 37.6796 57.6847 37.6796C57.3699 37.6796 57.1603 37.6796 57.0384 37.2604C56.9332 36.7352 56.828 36.0889 56.5132 35.5645C55.9888 34.3929 55.132 33.6405 53.7509 33.7633C52.3697 33.7633 51.1981 34.2877 50.4466 35.6864C50.2361 36.0021 50.1309 36.4388 50.0266 36.8579C49.8161 38.5539 49.7117 40.2674 50.1318 41.9634C50.551 43.7646 52.1601 44.8309 54.0657 44.6205C55.6564 44.4109 56.9332 43.135 57.0384 41.3162C57.0384 41.0023 57.248 40.897 57.5628 40.897C57.8777 40.897 57.8777 41.1075 57.8777 41.4214C57.7724 43.2226 56.3913 44.8309 54.5725 45.3553C52.6494 45.7754 49.6767 45.2501 48.1912 42.8035C47.2292 41.2119 47.0196 39.4975 47.4388 37.6972C48.1912 33.8676 52.0198 32.5917 54.4682 33.2213C55.2372 33.3266 55.8669 33.658 56.5132 33.9729ZM98.1091 12.6943V13.4458H96.9384C96.6236 13.4458 96.5184 13.5511 96.5184 13.8659V17.485C96.5184 17.6954 96.5184 17.905 96.8332 17.905H100.662V13.4283H99.0711V12.6768H104.597V13.4283H103.425C103.11 13.4283 103.005 13.5335 103.005 13.8484V23.22C103.005 23.5348 103.11 23.6392 103.425 23.5348H104.282C104.597 23.5348 104.597 23.7453 104.597 23.954C104.597 24.2697 104.491 24.2697 104.282 24.2697H99.0711C98.8615 23.5173 98.9659 23.5173 99.5955 23.5173H100.452V19.1634C100.452 18.8486 100.348 18.639 99.9279 18.7442H96.6236C96.3088 18.7442 96.2036 18.8494 96.2036 19.1634V23.2025C96.2036 23.5173 96.3088 23.6225 96.6236 23.6225H97.148C97.7952 23.6225 97.7952 23.6225 97.7952 24.3741H92.2697V23.6217H93.4413C93.7561 23.6217 93.8604 23.5164 93.8604 23.2025V13.8308C93.8604 13.5151 93.7561 13.4108 93.4413 13.4108H92.2697V12.6592C94.3857 12.6943 96.186 12.6943 98.1091 12.6943ZM45.656 18.4469C45.7612 16.523 46.1804 14.9322 47.6834 13.5511C49.9222 11.5228 55.0277 11.7499 56.3036 16.1029C56.828 17.905 56.828 19.7229 55.9888 21.4188C55.0277 23.5524 52.7897 24.724 50.3414 24.3916C47.9982 24.0759 46.3023 22.4676 45.8656 20.1429C45.7603 19.6185 45.656 19.0757 45.656 18.4469ZM48.3131 18.3417C48.3131 18.9889 48.313 19.6185 48.4183 20.2648C48.5235 21.4364 48.8375 22.3984 49.6942 23.2376C50.551 24.0943 51.933 24.0943 52.667 23.2376C53.0861 22.7132 53.5237 22.066 53.7333 21.4364C54.1534 19.95 54.1534 18.4636 53.9438 16.9606C53.8385 16.2082 53.7333 15.4742 53.4185 14.827C52.9993 13.8659 52.2469 13.2363 51.0754 13.2363C50.009 13.2363 49.275 13.8834 48.8375 14.827C48.2078 15.789 48.3131 17.0649 48.3131 18.3417ZM125.77 13.4458V12.6943H129.179C129.599 12.6943 129.932 12.7996 130.141 13.2187C131.837 15.5619 133.551 17.905 135.247 20.2473C135.247 20.142 135.247 20.2473 135.456 20.3525C135.456 20.142 135.562 20.0377 135.562 19.9324V14.0755C135.562 13.6563 135.456 13.4283 135.037 13.4283C134.722 13.4283 134.408 13.4283 133.971 13.3231V12.5716H138.009V13.324C137.59 13.324 137.38 13.4292 137.048 13.4292C136.628 13.4292 136.401 13.6388 136.401 14.1807V23.762C136.401 23.9724 136.296 24.2864 136.086 24.2864C135.876 24.2864 135.667 24.1811 135.439 24.0759C135.335 24.0759 135.335 23.9716 135.335 23.8672C133.411 21.2092 131.505 18.5513 129.477 15.8942C129.162 15.3689 128.725 14.9322 128.305 14.3026V22.8C128.305 23.3253 128.41 23.5524 128.935 23.5524H129.25C129.879 23.5524 129.879 23.5524 129.879 24.3039H125.84C125.63 23.6567 125.63 23.5524 126.364 23.5524C127.326 23.4472 127.326 23.4472 127.326 22.486V13.9711C127.326 13.5502 127.221 13.324 126.802 13.4458H125.77ZM77.0402 44.3942H78.317C78.6318 44.3942 78.6318 44.6038 78.6318 44.8134C78.6318 45.0238 78.6318 45.2334 78.3161 45.2334H73.3159C73.0019 45.2334 73.0019 45.1282 73.0019 44.8134C73.0019 44.6029 73.0019 44.3942 73.3159 44.3942H74.5927V34.9348C74.5927 34.5148 74.4874 34.2877 74.0683 34.2877H73.4211C73.1063 34.2877 73.0019 34.1824 73.0019 33.8676C73.0019 33.5537 73.1072 33.4485 73.4211 33.4485H79.4885C80.7645 33.4485 82.0404 33.8676 82.6876 35.0392C83.8591 36.9632 82.7928 39.2888 80.5549 39.7255C79.5929 39.9359 78.5266 39.9359 77.5821 39.9359C77.1629 39.9359 77.0577 40.0403 77.0577 40.4595C77.0402 41.8415 77.0402 43.0122 77.0402 44.3942ZM76.9349 36.736V38.8687C76.9349 39.0792 76.9349 39.2888 77.2506 39.2888C77.8969 39.2888 78.5266 39.2888 79.1737 39.1835C80.0305 39.0783 80.4496 38.6591 80.4496 37.8024V35.5645C80.3444 34.7077 80.0305 34.2877 79.1737 34.1824C78.5266 34.0772 78.0022 34.1824 77.3725 34.0772C77.0577 34.0772 76.9534 34.1824 76.9534 34.4981C76.9358 35.354 76.9358 36.1064 76.9358 36.7352L76.9349 36.736ZM95.6616 34.3929C95.0145 34.4981 94.2805 34.4981 93.7385 34.7077C93.2141 34.813 92.8818 35.2321 92.7766 35.7741C92.6722 36.1932 92.567 36.7352 92.567 37.1552C92.4617 37.8024 92.4617 37.8024 91.7102 37.6796V36.8229C91.8155 35.8618 91.9198 34.8998 91.9198 33.9553C91.9198 33.7457 91.9198 33.5362 92.2346 33.5362H101.712C101.712 33.5362 101.816 33.5362 101.921 33.6414C102.026 34.9173 102.131 36.2985 102.236 37.5753C101.484 37.7848 101.484 37.7848 101.379 37.05C101.274 36.736 101.17 36.4037 101.17 35.9836C100.959 35.0225 100.313 34.4973 99.3684 34.4973H98.1968V44.3942H100.435V45.1457H93.5114V44.3942H95.7493C95.6616 41.1066 95.6616 37.8024 95.6616 34.3929ZM117.587 24.3039H112.377C112.167 23.5524 112.272 23.5524 112.902 23.5524H113.653C113.339 22.8 113.129 22.066 112.902 21.4188C112.902 21.3136 112.691 21.3136 112.587 21.3136H109.387C109.282 21.3136 109.072 21.4188 109.072 21.5241C108.865 22.1677 108.649 22.8088 108.425 23.4472C108.74 23.4472 108.95 23.5524 109.178 23.5524C109.824 23.5524 109.824 23.762 109.702 24.3039H105.978C105.873 23.5524 105.873 23.5524 106.502 23.5524C107.149 23.5524 107.464 23.3419 107.674 22.6956C108.74 19.4957 109.912 16.3134 111.083 13.0091C111.188 12.6934 111.293 12.362 111.73 12.362C112.15 12.362 112.377 12.5724 112.482 13.0091C113.339 15.561 114.283 18.1146 115.14 20.6673C115.455 21.5241 115.786 22.3633 115.997 23.2192C116.101 23.5348 116.311 23.6401 116.643 23.6401H116.958C117.693 23.5524 117.693 23.5524 117.587 24.3039ZM112.691 20.3525C112.167 18.8661 111.625 17.485 111.205 15.981H111.101C110.576 17.3622 110.139 18.8486 109.614 20.2297C110.559 20.3525 111.52 20.3525 112.691 20.3525ZM66.4101 44.3942H67.7913C67.4756 43.6418 67.2669 42.9078 67.0389 42.2607C67.0389 42.1554 66.8293 42.0502 66.7249 42.0502H63.5242C63.4198 42.0502 63.2102 42.1554 63.105 42.2607C62.8954 42.9078 62.6858 43.4322 62.4578 44.1838C62.8787 44.289 63.3146 44.289 63.7346 44.3942V45.1457H60.0103C59.7999 44.3942 59.7999 44.3942 60.5347 44.3942C61.3915 44.3942 61.3915 44.3942 61.7063 43.5375C62.8779 40.3367 63.9442 37.1552 65.1158 33.851C65.221 33.5353 65.3262 33.2038 65.8682 33.2038C66.3926 33.2038 66.5145 33.5186 66.6197 33.851C67.7913 37.1552 68.9628 40.5472 70.1344 43.8523C70.2396 44.2714 70.4492 44.3767 70.8859 44.3767H71.4103C71.7251 44.3767 71.7251 44.5863 71.7251 44.7958C71.7251 45.0063 71.6199 45.2159 71.4103 45.2159H66.8293C66.1821 45.1457 66.5145 44.7257 66.4101 44.3942ZM63.525 41.211H66.7249C66.1996 39.7255 65.6577 38.3434 65.2385 36.8404H65.1333C64.5914 38.3443 64.067 39.7246 63.525 41.211ZM108.425 45.1457V44.3942H109.806C109.517 43.6973 109.266 42.9851 109.055 42.2607C109.055 42.1554 108.845 42.0502 108.636 42.0502H105.558C105.453 42.0502 105.243 42.1554 105.139 42.3659C104.929 42.8903 104.718 43.5375 104.491 44.289C104.911 44.3942 105.348 44.3942 105.768 44.4994V45.251H102.044C101.833 44.6038 101.833 44.4986 102.568 44.4986C103.425 44.4986 103.425 44.4986 103.74 43.6418C104.911 40.4419 105.978 37.2604 107.149 34.0606C107.254 33.7457 107.359 33.4134 107.901 33.4134C108.425 33.4134 108.548 33.7282 108.652 34.0606C109.824 37.3648 110.996 40.7567 112.167 44.0619C112.272 44.3767 112.482 44.5863 112.814 44.481H113.233C113.548 44.481 113.759 44.481 113.759 44.9011C113.759 45.3202 113.548 45.3202 113.233 45.3202H108.863C108.758 45.1457 108.652 45.1457 108.425 45.1457ZM107.271 36.9456H107.167C106.642 38.3268 106.205 39.8132 105.68 41.1943H108.88C108.249 39.8159 107.712 38.3964 107.271 36.9456ZM73.8412 18.4469C74.8023 16.751 75.6415 15.2462 76.6035 13.5511C76.1834 13.4458 75.8511 13.4458 75.4319 13.3406V12.5891H79.1562V13.2363L79.051 13.3415C77.9846 13.2363 77.4602 13.7607 77.0226 14.6174C76.2711 16.2082 75.3267 17.6954 74.4708 19.1985C74.3656 19.4089 74.2603 19.6185 74.2603 19.8456V23.0446C74.2603 23.3603 74.3656 23.4647 74.6804 23.4647H75.2048C75.8519 23.4647 75.8519 23.4647 75.7292 24.2162H70.3089V23.4647H71.4805C71.6909 23.4647 71.8997 23.3595 71.8997 23.1499V19.8456C71.8997 19.6352 71.7944 19.5299 71.6901 19.3212C70.6237 17.3973 69.5574 15.5969 68.4902 13.7957C68.287 13.6018 68.0194 13.4897 67.7387 13.4809C67.4238 13.3757 67.0915 13.4809 66.7767 13.4809V12.7294H72.0926V13.4809C71.6725 13.4809 71.3402 13.4809 70.8158 13.5862C71.9347 15.1418 72.7915 16.751 73.8412 18.4469ZM90.871 14.7226V16.523C90.871 16.8387 90.871 17.0482 90.451 17.0482C90.1361 17.0482 89.9266 16.943 89.9266 16.6282C89.8222 15.5619 89.4022 14.4946 88.4402 13.8659C86.8494 12.5891 84.1915 13.4458 83.44 15.4566C83.2295 16.3134 83.1251 17.2578 83.1251 18.1137C83.1251 19.1809 83.2304 20.3525 83.5443 21.4197C83.9652 23.0104 85.5726 23.8663 87.2695 23.762C88.8602 23.5515 90.0318 22.2756 90.1361 20.684C90.1361 20.37 90.2414 20.1604 90.6614 20.1604C91.0806 20.1604 90.9754 20.4753 90.9754 20.6848C90.871 22.3808 89.5942 23.8847 87.7763 24.4091C85.328 25.0563 82.4604 23.8847 81.1845 21.6468C79.9077 19.3037 79.9077 14.9498 83.4224 13.1319C85.2236 12.1699 87.2519 11.9595 89.0698 13.2363C89.175 13.3415 89.3846 13.2363 89.4898 13.2363C89.6994 13.0258 89.909 12.8162 90.2414 12.5891C90.3466 12.5891 90.5562 12.3786 90.6614 12.4839C90.7658 12.4839 90.871 12.7996 90.871 12.9048V14.7226ZM123.97 40.5647C123.759 42.0511 123.655 43.4322 123.445 44.9362C123.445 45.0414 123.13 45.1457 122.92 45.1457H115.577C114.929 45.1457 114.929 45.1457 115.052 44.3942H116.539V34.8296C116.539 34.4104 116.433 34.1824 116.014 34.3052H115.594C114.843 34.3052 114.843 34.3052 115.07 33.5537H120.927C121.137 34.3052 121.032 34.3052 120.402 34.3052H119.021V44.3065C120.944 44.7257 122.431 43.8865 122.851 42.0686C122.955 41.7529 122.955 41.4214 123.06 41.1066C123.217 40.4595 123.217 40.3551 123.97 40.5647ZM67.145 19.7229C66.9345 21.2092 66.8293 22.8009 66.6188 24.3039H58.2091V23.5524H59.3807C59.6964 23.5524 59.8007 23.4472 59.8007 23.1323V13.4458H58.3144V12.6943H64.3818V13.4458H62.3526V23.0104C62.3526 23.4296 62.4578 23.5348 62.877 23.5348C65.0105 23.5348 65.955 22.6781 66.3917 20.5621C66.3917 20.4568 66.4969 20.3525 66.4969 20.2473C66.2865 19.6185 66.6188 19.6185 67.1432 19.7229H67.145ZM84.594 34.2886V33.5362H90.3466V34.2877H89.0698C88.8602 34.2877 88.6506 34.3929 88.6506 34.6025V44.1838C88.6506 44.289 88.6506 44.289 88.755 44.3942H90.3466V45.1457H84.594V44.3942H85.8699C86.1856 44.3942 86.1856 44.289 86.1856 44.0785V34.7086C86.1856 34.3929 86.0804 34.2886 85.7647 34.2886H84.594ZM118.864 13.4458V12.6943H123.97C124.598 12.5891 124.598 12.5891 124.598 13.4458H122.885V23.0104C122.885 23.5348 122.99 23.6567 123.532 23.5348H123.952C124.582 23.5348 124.582 23.5348 124.582 24.2864H118.829C118.724 23.5348 118.724 23.5348 119.475 23.5348C120.543 23.5348 120.543 23.5348 120.543 22.4685V13.9536C120.543 13.5327 120.437 13.3064 120.018 13.4283C119.598 13.4458 119.178 13.4458 118.864 13.4458Z" fill="white"/>
</g>
</svg>
