<svg width="161" height="57" viewBox="0 0 161 57" fill="none" xmlns="http://www.w3.org/2000/svg">
<mask id="mask0_10_82" style="mask-type:luminance" maskUnits="userSpaceOnUse" x="28" y="21" width="104" height="15">
<path d="M28.0616 21.888H131.839V35.9188H28.0616V21.888Z" fill="white"/>
</mask>
<g mask="url(#mask0_10_82)">
<path d="M64.7582 35.6778L63.427 33.3715C64.0496 32.1789 64.0496 30.7714 64.0496 28.9202C64.0496 26.6139 64.0496 24.8846 62.7176 23.4833C62.2586 22.9827 61.6956 22.5887 61.0681 22.3289C60.4406 22.0691 59.7639 21.9498 59.0854 21.9794C58.4087 21.9644 57.7362 22.0905 57.1109 22.3495C56.4856 22.6086 55.921 22.995 55.4532 23.4842C54.1211 24.8215 54.1211 26.5166 54.1211 28.8974C54.1211 31.2783 54.0518 32.933 55.4532 34.3282C55.9175 34.8247 56.4813 35.2177 57.1079 35.4814C57.7349 35.7383 58.4084 35.8585 59.0854 35.833C59.4642 35.8278 59.8413 35.7813 60.2096 35.6953L64.7582 35.6778ZM57.3447 32.7085C56.8597 32.1324 56.7221 31.5098 56.7221 28.8974C56.7221 26.286 56.8887 25.6458 57.3447 25.0863C57.5661 24.8655 57.8282 24.6895 58.1164 24.5681C58.4028 24.4462 58.7109 24.3835 59.0222 24.3839C59.3344 24.3842 59.6435 24.4464 59.9314 24.567C60.2194 24.6875 60.4806 24.8641 60.6998 25.0863C61.1838 25.6633 61.3224 26.286 61.3224 28.8974C61.3224 31.5089 61.1838 32.1438 60.6998 32.7085C60.4858 32.9365 60.2262 33.1163 59.9386 33.2391C59.647 33.3541 59.3357 33.4108 59.0222 33.4057C58.71 33.4127 58.3996 33.3531 58.1102 33.2329C57.8218 33.1119 57.562 32.9335 57.3447 32.7085ZM95.4189 22.1171H97.9962V35.6778H95.4189V22.1162V22.1171ZM32.9557 35.8164C30.944 35.8164 29.3989 35.3954 28.0616 34.052L29.7391 32.3569C30.1726 32.7522 30.6802 33.0576 31.2324 33.2556C31.7847 33.4535 32.3707 33.54 32.9566 33.5101C34.4956 33.5101 35.3322 32.933 35.3322 31.815C35.3401 31.6067 35.3067 31.399 35.2339 31.2037C35.1637 31.0101 35.0538 30.8333 34.9112 30.6846C34.5775 30.398 34.1615 30.2246 33.723 30.1891L32.0972 29.9638C31.1326 29.8819 30.2242 29.4757 29.5199 28.8115C29.1963 28.452 28.9458 28.0329 28.7824 27.5777C28.6102 27.1156 28.5335 26.6233 28.557 26.1307C28.5456 23.7429 30.2934 22.0487 33.2503 22.0487C35.0664 22.0487 36.4678 22.4635 37.5911 23.5991L35.8969 25.2301C35.5315 24.8921 35.0999 24.6335 34.6294 24.4707C34.1589 24.308 33.6597 24.2447 33.1635 24.2848C31.7631 24.2848 31.0712 25.0697 31.0712 26.015C31.0826 26.3815 31.2299 26.7314 31.486 26.9945C31.849 27.2953 32.284 27.4944 32.7487 27.5715L34.357 27.7794C35.3184 27.805 36.2366 28.1847 36.9352 28.8457C37.2927 29.2337 37.5707 29.688 37.7533 30.183C37.9323 30.6837 38.0127 31.2144 37.9901 31.7457C37.9901 34.3458 35.7583 35.833 32.9504 35.833M41.7547 35.6778V22.1162H50.6274V24.4225H44.4013V27.6233H49.7049V30.0497H44.4074V33.3768H50.6336V35.6831H41.7556M72.9232 35.8146C70.1907 35.8146 67.9598 33.9126 67.9598 31.0178V22.1171H70.6283V30.938C70.6283 32.4946 71.5456 33.4048 72.9346 33.4048C74.3245 33.4048 75.2409 32.477 75.2409 30.938V22.1162H77.8182V31.0082C77.8182 33.8915 75.6732 35.805 72.9408 35.805M90.2486 34.3291C89.7893 34.829 89.2261 35.2223 88.5986 35.4814C87.9712 35.7404 87.2946 35.859 86.6164 35.8286C85.9404 35.8472 85.2682 35.7232 84.6433 35.4649C84.0184 35.2065 83.4549 34.8195 82.9894 34.3291C81.681 32.9865 81.681 31.2914 81.681 28.8983C81.681 26.5061 81.6118 24.8627 83.0184 23.4675C83.4734 22.9723 84.0312 22.5825 84.6527 22.3256C85.2743 22.0687 85.9445 21.9508 86.6164 21.9803C87.2917 21.9711 87.9619 22.0992 88.5863 22.3568C89.2107 22.6144 89.7762 22.9962 90.2486 23.4789C91.5806 24.8224 91.5806 26.5175 91.5806 28.9097C91.5806 31.3028 91.5806 32.9348 90.2486 34.3291ZM88.2939 25.1047C88.0749 24.8832 87.814 24.7073 87.5265 24.5873C87.239 24.4672 86.9306 24.4054 86.619 24.4054C86.3074 24.4054 85.999 24.4672 85.7115 24.5873C85.424 24.7073 85.1631 24.8832 84.9441 25.1047C84.4539 25.6818 84.3215 26.3044 84.3215 28.9159C84.3215 31.5273 84.4539 32.1613 84.9441 32.7217C85.1625 32.9443 85.4232 33.1212 85.7108 33.2419C85.9983 33.3626 86.3071 33.4248 86.619 33.4248C86.9309 33.4248 87.2397 33.3626 87.5272 33.2419C87.8148 33.1212 88.0755 32.9443 88.2939 32.7217C88.778 32.1447 88.9165 31.5273 88.9165 28.9159C88.9165 26.3044 88.7955 25.6467 88.2939 25.0872V25.1047ZM110.381 35.6787L109.615 33.2803H104.858L104.028 35.6787H101.284L106.195 22.1179H108.202L113.097 35.6787H110.381ZM107.228 26.0676L105.55 31.0082H108.905L107.228 26.0676ZM128.485 22.1179H131.84V25.5081H128.485V22.1179ZM120.096 32.7612V22.1171H118.418V34.4729L120.096 32.7612ZM121.272 33.9836L119.595 35.6787H131.84V33.9836H121.272ZM123.452 29.3885V22.1188H121.774V31.0836L123.452 29.3885ZM124.627 30.5934L122.945 32.2885H131.84V30.5934H124.627ZM126.801 26.0159V22.1162H125.124V27.6917L126.801 26.0141V26.0159ZM127.983 27.2032L126.311 28.8983H131.84V27.2023L127.983 27.2032Z" fill="white"/>
</g>
</svg>
