<svg width="242" height="57" viewBox="0 0 242 57" fill="none" xmlns="http://www.w3.org/2000/svg">
<g id="supporter3">
<g id="Clip path group">
<mask id="mask0_10_73" style="mask-type:luminance" maskUnits="userSpaceOnUse" x="28" y="19" width="186" height="20">
<g id="a">
<path id="Vector" d="M28.6615 19.2572H213.316V38.5495H28.6615V19.2572Z" fill="white"/>
</g>
</mask>
<g mask="url(#mask0_10_73)">
<g id="Group">
<path id="Vector_2" opacity="0.4" d="M46.8515 19.8097H28.6615V24.3574H46.8515V19.8097Z" fill="white"/>
<path id="Vector_3" opacity="0.6" d="M46.8516 24.3565H28.6615V28.9043H46.8516V24.3565Z" fill="white"/>
<path id="Vector_4" opacity="0.8" d="M46.8516 28.9034H28.6615V33.452H46.8516V28.9034Z" fill="white"/>
<path id="Vector_5" d="M46.8516 33.4528H28.6615V38.0006H46.8516V33.4528ZM63.1123 25.1834V28.215H67.2462V29.5935H63.1123V34.0027H61.4585V23.8058H68.3485V25.1826H63.1132L63.1123 25.1834ZM77.5825 23.8067C78.5471 23.8067 78.961 23.9452 79.374 24.2206C79.9256 24.7713 80.3386 25.4606 80.3386 28.906C80.3386 32.3505 79.9256 33.0398 79.374 33.5914C78.961 33.8667 78.6856 34.0044 77.5825 34.0044H74.5509C73.5863 34.0044 73.1733 33.8667 72.7594 33.5914C72.2087 33.0398 71.7948 32.3505 71.7948 28.906C71.7948 25.4606 72.2087 24.7713 72.7594 24.2206C73.1733 23.9452 73.4486 23.8067 74.5509 23.8067H77.5825ZM73.8625 32.4882C74.0002 32.6268 74.1379 32.6268 74.6886 32.6268H77.4448C77.9964 32.6268 78.134 32.6268 78.2717 32.4882C78.4094 32.3505 78.6856 31.9375 78.6856 28.906C78.6856 26.0121 78.4094 25.4606 78.2717 25.3229C78.134 25.1852 77.9964 25.1852 77.4448 25.1852H74.6895C74.137 25.1852 74.0002 25.1852 73.8625 25.3229C73.7249 25.4606 73.4486 25.8745 73.4486 28.906C73.5863 31.7998 73.7249 32.3505 73.8625 32.4882ZM93.0163 29.7329C93.0163 32.3505 92.7401 32.7644 92.1894 33.3152C91.6378 33.7291 90.9485 33.8667 89.5709 33.8667H88.0547C86.677 33.8667 85.9878 33.7291 85.4371 33.3152C84.8855 32.7644 84.6101 32.2129 84.6101 29.7329V23.8067H86.2631V30.146C86.2631 31.9375 86.4017 32.2129 86.677 32.3505C86.8147 32.4882 87.0901 32.6268 88.3309 32.6268H89.2955C90.3978 32.6268 90.6732 32.6268 90.9485 32.3505C91.2247 32.0752 91.2247 32.0752 91.2247 30.146V23.8067H92.8777V29.7329H93.0163ZM106.245 34.0035H104.453C104.04 34.0035 103.902 33.8659 103.627 33.5896L99.4924 26.0113H99.217V34.0035H97.5631V23.8058H99.4924C99.9063 23.8058 100.044 23.9444 100.319 24.2197L104.315 31.385H104.592V23.6681H106.245V34.0035ZM115.615 23.8067C116.855 23.8067 117.682 23.9452 118.233 24.4959C118.922 25.0475 119.335 26.4252 119.335 28.906C119.335 31.3859 119.06 32.6268 118.233 33.3152C117.682 33.8667 116.993 34.0044 115.615 34.0044H110.929V23.8067H115.615ZM116.855 25.4606C116.579 25.1852 116.166 25.1852 115.615 25.1852H112.721V32.6268H115.615C116.304 32.6268 116.579 32.6268 116.855 32.3505C117.268 31.9375 117.406 31.2482 117.406 29.0437C117.544 26.5628 117.268 25.8745 116.855 25.4606ZM130.772 34.0044H123.468V23.8067H130.772V25.1852H125.122V27.9414H129.808V29.319H125.122V32.4882H130.772V34.0044ZM140.832 30.0074C140.695 29.8697 140.282 29.8697 139.73 29.8697H136.698V34.1412H135.045V23.9444H140.832C141.522 23.9444 142.073 24.082 142.348 24.3574C142.762 24.7713 143.038 25.322 143.038 26.8382C143.038 28.6298 142.486 29.1805 141.246 29.3181C142.348 29.4558 142.762 29.732 142.9 31.2474C142.9 32.6259 143.038 33.5905 143.038 34.1412H141.384C141.246 33.4528 141.246 32.4873 141.246 31.385C141.109 30.4204 140.971 30.1451 140.832 30.0074ZM140.282 28.4912C140.695 28.4912 140.832 28.3535 140.971 28.3535C141.109 28.2158 141.246 27.9405 141.246 26.8382C141.246 25.7359 141.109 25.4597 140.971 25.322C140.832 25.1843 140.695 25.1843 140.282 25.1843H136.698V28.4912H140.282ZM154.614 33.5905C154.339 33.8659 153.787 34.0035 152.961 34.0035H149.378C148.551 34.0035 147.999 33.8659 147.724 33.5905C147.311 33.1766 147.173 32.6259 147.173 30.8343H148.826C148.826 32.0743 148.964 32.3497 148.964 32.4882C149.103 32.6259 149.24 32.6259 149.653 32.6259H152.685C153.099 32.6259 153.236 32.6259 153.374 32.4882C153.512 32.3497 153.512 31.9366 153.512 31.1097C153.512 30.4204 153.512 30.1451 153.374 30.0074C153.236 29.8697 153.099 29.8697 152.685 29.8697L149.378 29.5944C148.551 29.4558 148.138 29.3181 147.862 29.0428C147.449 28.6298 147.311 28.2158 147.311 26.8382C147.311 25.4597 147.449 24.909 147.999 24.3574C148.276 24.082 148.826 23.9444 149.653 23.9444H152.961C153.787 23.9444 154.339 24.082 154.614 24.3574C155.028 24.7713 155.166 25.1843 155.166 27.1136H153.512C153.512 25.8736 153.374 25.5974 153.374 25.5974C153.236 25.4597 153.099 25.4597 152.685 25.4597H149.929C149.516 25.4597 149.378 25.4597 149.24 25.5974C149.103 25.7359 149.103 26.1489 149.103 26.9759C149.103 27.6651 149.103 27.9405 149.24 28.0782C149.378 28.2158 149.516 28.2158 149.929 28.2158L153.236 28.4912C153.926 28.4912 154.476 28.6298 154.752 29.0428C155.166 29.4558 155.303 29.8697 155.303 31.385C155.303 32.4882 155.166 33.0389 154.614 33.5905ZM166.877 25.1852V28.2167H171.011V29.5952H166.877V34.0044H165.224V23.8067H172.114V25.1852H166.877ZM184.379 29.7312C184.379 32.3488 184.103 32.7627 183.552 33.3134C183.001 33.7273 182.312 33.865 180.933 33.865H179.418C178.039 33.865 177.351 33.7273 176.799 33.3134C176.249 32.7627 175.972 32.2111 175.972 29.7312V23.8049H177.626V30.1451C177.626 31.9358 177.764 32.2111 178.039 32.3488C178.178 32.4865 178.453 32.625 179.693 32.625H180.658C181.76 32.625 182.036 32.625 182.312 32.3488C182.587 32.0734 182.587 32.0734 182.587 30.1442V23.8049H184.241V29.7312H184.379ZM197.608 34.0035H195.816C195.403 34.0035 195.265 33.8659 194.989 33.5896L190.855 26.0113H190.58V34.0035H188.926V23.8058H190.855C191.269 23.8058 191.406 23.9444 191.682 24.2197L195.679 31.385H195.954V23.6681H197.608V34.0035ZM206.978 23.8067C208.218 23.8067 209.045 23.9452 209.596 24.4959C210.285 25.0475 210.699 26.4252 210.699 28.906C210.699 31.3859 210.422 32.6268 209.596 33.3152C209.045 33.8667 208.355 34.0044 206.978 34.0044H202.292V23.8067H206.978ZM208.218 25.4606C207.942 25.1852 207.528 25.1852 206.978 25.1852H204.084V32.6268H206.978C207.667 32.6268 207.942 32.6268 208.218 32.3505C208.632 31.9375 208.769 31.2482 208.769 29.0437C208.769 26.5628 208.632 25.8745 208.218 25.4606Z" fill="white"/>
</g>
</g>
</g>
</g>
</svg>
